<svg xmlns="http://www.w3.org/2000/svg" width="151" height="27" fill="none" xmlns:v="https://vecta.io/nano"><path d="M34.72 14.574c.026-.207-.005-.417-.09-.607s-.221-.353-.392-.472a2.73 2.73 0 0 0-1.156-.173h-1.027c-.403-.018-.806.03-1.194.141-.193.063-.359.191-.47.361a.89.89 0 0 0-.14.576.43.43 0 0 0 0 .205h4.43v-.032h.038zm-.032 2.119h2.651c.034.448-.071.896-.301 1.282s-.573.692-.983.875c-.882.284-1.809.404-2.735.353-.867 0-1.734-.032-2.568-.09-.479.008-.955-.084-1.397-.27s-.841-.461-1.171-.809a4.88 4.88 0 0 1-.61-2.805 3.98 3.98 0 0 1 .706-2.619c.475-.552 1.284-.841 2.504-.892l2.536-.071c1.605 0 2.651.238 3.21.713.467.435.749 1.032.79 1.669l.09 1.926h-7.152c-.035.423.078.846.321 1.194a1.47 1.47 0 0 0 1.136.353h1.515c.474.064.954-.05 1.348-.321.064-.032.09-.206.116-.494l-.006.006zm12.718-4.886v1.778H43.04v2.311a1.77 1.77 0 0 0 .205.989c.117.117.258.206.413.261s.321.076.485.06a1.4 1.4 0 0 0 .873-.206c.102-.102.181-.225.23-.36s.07-.28.058-.423v-.321h2.099c0 1.284-.206 2.157-.578 2.568s-1.284.732-2.619.732c-.917.055-1.837-.064-2.709-.353-.405-.184-.742-.493-.961-.88s-.31-.835-.259-1.277v-3.03h-1.367V11.89h1.367v-1.798h2.761v1.798h4.366v-.045-.039zm11.62 1.99h-2.825c-.019-.106-.072-.202-.151-.275s-.179-.118-.286-.129a4.27 4.27 0 0 0-.989-.09h-1.156c-.343-.001-.687.02-1.027.064-.385.064-.552.257-.552.578s.289.494.899.494h2.972c.795-.014 1.589.072 2.363.257.359.151.661.413.86.749s.285.726.245 1.113a3.35 3.35 0 0 1-.205 1.367 1.78 1.78 0 0 1-.436.541c-.18.15-.387.263-.61.332-1.205.322-2.453.452-3.698.385h-1.136c-.894.052-1.79-.046-2.651-.289-.405-.173-.747-.469-.977-.845s-.338-.814-.307-1.254h2.799a.64.64 0 0 0 .527.642 4.91 4.91 0 0 0 1.104.09h.642c.289 0 .494.032.642.032.456.02.912-.038 1.348-.173.103-.049.189-.128.246-.226s.083-.212.075-.326c0-.353-.321-.552-.931-.552H53.8c-.764 0-1.534 0-2.298-.058-1.4-.116-2.099-.835-2.099-2.215-.036-.354.029-.711.188-1.029s.406-.585.711-.768c.637-.309 1.334-.478 2.042-.494l2.619-.071c.809-.005 1.618.044 2.42.148.492.051.948.279 1.284.642.27.405.413.881.411 1.367l-.051-.006zm3.98-2.003h5.04v.931h-5.04v3.493a2.3 2.3 0 0 0 .411 1.605 2.5 2.5 0 0 0 1.631.385 3.85 3.85 0 0 0 1.541-.231c.223-.126.403-.315.517-.544s.158-.486.125-.74v-.411c0-.173-.032-.321-.032-.405h1.027c0 1.348-.148 2.215-.437 2.568-.385.494-1.284.758-2.568.758-.797.069-1.598-.063-2.331-.385-.61-.347-.931-1.046-.931-2.067v-3.98h-1.778v-.963h1.778v-1.631h1.079v1.644l-.032-.026zm15.53 7.3h-1.079v-1.425c-.117.303-.301.576-.537.798s-.52.388-.83.486c-.627.173-1.276.253-1.926.238-1.007.051-2.015-.086-2.972-.404-.45-.228-.819-.587-1.06-1.029s-.341-.948-.288-1.449v-4.494h1.079V15.8c0 1.079.257 1.746.758 2.067.724.312 1.512.445 2.298.385.841.056 1.685-.062 2.478-.347.706-.353 1.046-1.046 1.046-2.099v-3.993h1.034v7.28zm2.453-7.28h1.078v1.284c.082-.275.231-.525.434-.728s.453-.352.728-.434c.557-.167 1.14-.237 1.721-.206 1.4 0 2.298.148 2.761.437.642.404.963 1.252.963 2.536v.173a.82.82 0 0 1-.032.173h-1.027c.064-.652-.09-1.306-.437-1.862a2.45 2.45 0 0 0-1.798-.494h-.424a4.09 4.09 0 0 0-2.157.411c-.494.321-.758.989-.758 1.926v4.077h-1.078l-.032-7.319.058.026zm-69.979-1.528h.578l.642.032.578.084a1.47 1.47 0 0 1 .469.173 2.03 2.03 0 0 1 .706.713c.206.321.307.698.289 1.079a2.02 2.02 0 0 1-.321 1.149c-.227.333-.552.587-.931.726v.032c.475.084.901.343 1.194.725a2.13 2.13 0 0 1 .411 1.348 2.39 2.39 0 0 1-.173.905 2.87 2.87 0 0 1-.494.79 2.57 2.57 0 0 1-1.926.757H7.916v-8.507h3.107l-.013-.006zm.289 3.672c.492.04.983-.082 1.4-.347.149-.124.266-.283.342-.461s.108-.373.095-.566c.003-.25-.047-.497-.148-.725-.088-.177-.229-.321-.404-.411-.182-.089-.377-.148-.578-.173-.238 0-.469-.032-.706-.032H9.007v2.709h2.273l.019.006zm.578 3.903a1.58 1.58 0 0 0 1.156-.411 1.45 1.45 0 0 0 .437-1.136 1.78 1.78 0 0 0-.148-.7.97.97 0 0 0-.411-.437 2.22 2.22 0 0 0-.578-.231 2.61 2.61 0 0 0-.706-.064H9.007v2.972h2.87v.006zm4.109-6.324v-1.252h1.027v1.252h-1.027zm1.027 1.104v6.176h-1.027v-6.17l1.027-.006zm2.478 0v1.284h.032c.197-.441.507-.822.899-1.104.412-.247.887-.367 1.367-.347v1.079a2.89 2.89 0 0 0-1.046.173c-.277.095-.522.266-.706.494s-.311.498-.379.783c-.086.342-.125.694-.116 1.046v2.741h-1.027v-6.144h.957l.019-.006zm77.092 0v.899a2.26 2.26 0 0 1 2.01-1.046 2.67 2.67 0 0 1 1.046.231 1.34 1.34 0 0 1 .642.815 2.13 2.13 0 0 1 .815-.783c.342-.174.721-.264 1.104-.263a3.66 3.66 0 0 1 .835.09 1.59 1.59 0 0 1 .642.321 1.29 1.29 0 0 1 .405.552c.096.263.146.541.147.822v4.494h-1.027v-4.006c-.002-.177-.023-.354-.064-.526-.025-.157-.084-.306-.174-.437a.77.77 0 0 0-.385-.295 1.79 1.79 0 0 0-.946-.088c-.317.056-.614.198-.858.409-.142.153-.251.333-.322.53a1.58 1.58 0 0 0-.089.613v3.852h-1.027v-4.045c0-.186-.022-.371-.064-.552a1.33 1.33 0 0 0-.193-.411.83.83 0 0 0-.353-.289 1.58 1.58 0 0 0-.552-.09c-.264-.005-.524.056-.758.18-.202.111-.38.259-.526.437a1.76 1.76 0 0 0-.379.963v3.852h-1.027v-6.221h1.053l.045-.006zm14.695 6.157a1.28 1.28 0 0 1-.725.148.82.82 0 0 1-.67-.265.82.82 0 0 1-.181-.322.81.81 0 0 1-.022-.369c-.264.308-.593.554-.963.719a3.3 3.3 0 0 1-1.194.237 3.63 3.63 0 0 1-.79-.09 2.23 2.23 0 0 1-.642-.289c-.173-.151-.32-.329-.437-.526-.117-.244-.177-.512-.173-.783a2.03 2.03 0 0 1 .173-.873c.115-.216.275-.404.469-.552a2.31 2.31 0 0 1 .642-.321c.248-.079.501-.139.758-.18.289-.064.552-.084.783-.116.217-.021.432-.059.642-.116.173-.036.335-.115.469-.231.061-.054.109-.121.139-.197s.042-.158.034-.239c.015-.183-.025-.367-.116-.526a1.17 1.17 0 0 0-.321-.321 3.5 3.5 0 0 0-.436-.148c-.164-.027-.329-.037-.495-.032a2.32 2.32 0 0 0-1.078.237c-.152.102-.275.241-.357.404a1.06 1.06 0 0 0-.112.527h-1.027c.004-.334.083-.663.231-.963.137-.258.336-.479.578-.642.241-.177.52-.296.815-.347a4.69 4.69 0 0 1 .989-.122 6.86 6.86 0 0 1 .815.071 2.25 2.25 0 0 1 .758.231 1.13 1.13 0 0 1 .526.526c.176.258.272.561.276.873v3.178a2.38 2.38 0 0 0 0 .52c.033.122.116.18.289.18a1.36 1.36 0 0 0 .321-.071v.79h.032zm-1.63-3.146a1.1 1.1 0 0 1-.495.205l-.642.116-.706.09a2.01 2.01 0 0 0-.61.173 1.2 1.2 0 0 0-.436.347.97.97 0 0 0-.174.642.76.76 0 0 0 .09.404.92.92 0 0 0 .257.289c.12.07.25.119.385.148a2.12 2.12 0 0 0 .469.064c.297-.003.591-.053.873-.148.214-.076.411-.194.578-.347a1.36 1.36 0 0 0 .321-.469 1.38 1.38 0 0 0 .115-.469v-1.027h-.032l.007-.019zm3.499-3.005v1.284c.195-.444.508-.825.905-1.104a2.47 2.47 0 0 1 1.4-.295v1.079a2.64 2.64 0 0 0-1.047.173c-.277.091-.521.264-.7.494s-.311.499-.385.783c-.083.342-.122.694-.116 1.047v2.716h-1.027v-6.176h.97zm4.134-2.356v5.072l2.825-2.709h1.368l-2.44 2.247 2.619 3.936h-1.284l-2.118-3.242-.963.88v2.331h-1.028v-8.513h1.021zm10.593 8.507a1.28 1.28 0 0 1-.725.148.82.82 0 0 1-.67-.265.82.82 0 0 1-.181-.322.81.81 0 0 1-.022-.369c-.264.308-.593.554-.963.719-.38.155-.785.237-1.194.244a3.63 3.63 0 0 1-.79-.09 1.92 1.92 0 0 1-.642-.289c-.173-.151-.32-.329-.437-.526-.117-.244-.177-.512-.173-.783a2.02 2.02 0 0 1 .173-.873 1.7 1.7 0 0 1 .469-.552c.195-.141.412-.25.642-.321a5.2 5.2 0 0 1 .758-.18c.289-.064.552-.084.783-.116.217-.021.431-.059.642-.115.173-.036.335-.116.469-.231.061-.054.109-.121.139-.197s.042-.158.034-.239c.015-.183-.025-.367-.116-.527-.085-.127-.194-.236-.321-.321-.142-.059-.288-.108-.436-.148a2.57 2.57 0 0 0-.495-.032c-.372-.002-.741.079-1.078.238-.152.102-.275.241-.357.404a1.06 1.06 0 0 0-.112.527h-1.027c.01-.334.088-.661.231-.963.137-.258.335-.479.578-.642.241-.177.52-.296.815-.347.326-.069.656-.11.989-.122a6.97 6.97 0 0 1 .815.071c.264.032.521.11.758.231a1.13 1.13 0 0 1 .526.526c.151.265.222.569.206.873v3.178a2.38 2.38 0 0 0 0 .52c0 .122.115.18.289.18.11-.008.218-.032.321-.071v.79l.102-.007zm-1.669-3.146c-.145.108-.315.179-.494.205l-.642.116-.706.09c-.223.022-.44.08-.642.173-.171.08-.321.198-.437.347-.133.186-.194.414-.173.642a.69.69 0 0 0 .09.404c.064.113.151.212.256.289a1.29 1.29 0 0 0 .386.148 2.35 2.35 0 0 0 1.341-.09c.214-.076.411-.193.578-.347a1.36 1.36 0 0 0 .321-.469c.066-.148.105-.307.116-.469v-1.027l.006-.013zm3.403 1.811c.098.156.229.287.385.385.164.094.342.163.526.205l.61.064a3.35 3.35 0 0 0 .495 0 1.58 1.58 0 0 0 .494-.148.73.73 0 0 0 .347-.302c.097-.137.149-.301.147-.469.007-.118-.016-.235-.066-.342s-.127-.199-.222-.268a2.21 2.21 0 0 0-.758-.321l-.963-.238a5.03 5.03 0 0 1-.963-.289c-.292-.11-.553-.291-.758-.527-.212-.262-.315-.595-.289-.931-.013-.276.058-.55.206-.783a1.89 1.89 0 0 1 .526-.552 3.68 3.68 0 0 1 .726-.321 3.49 3.49 0 0 1 .815-.09c.323.001.646.031.963.09a2.52 2.52 0 0 1 .79.321 1.68 1.68 0 0 1 .552.61c.145.289.224.607.231.931h-1.027c-.018-.173-.068-.34-.148-.494a1.08 1.08 0 0 0-.321-.321c-.133-.085-.281-.144-.436-.173-.163-.034-.329-.056-.495-.064-.156-.012-.312-.012-.468 0l-.437.115c-.118.064-.226.144-.321.238-.088.108-.129.246-.115.385a.64.64 0 0 0 .173.437c.138.123.297.221.469.289.207.088.422.156.642.206l.725.173.758.206c.232.066.45.175.642.321a2.02 2.02 0 0 1 .468.494c.122.222.182.473.174.726.01.326-.07.648-.232.931a2.04 2.04 0 0 1-.609.642 2.32 2.32 0 0 1-.841.321 6.42 6.42 0 0 1-.931.09c-.334.004-.666-.035-.989-.116-.29-.067-.566-.185-.815-.347a2.14 2.14 0 0 1-.585-.642c-.159-.295-.239-.627-.231-.963h1.027c.001.194.052.384.148.552l-.019-.032zm5.264-4.815h1.027v6.176h-1.027v-6.176zm7.062 6.183v-.854a1.44 1.44 0 0 1-.789.719 3.05 3.05 0 0 1-1.194.238 2.9 2.9 0 0 1-1.252-.263 2.63 2.63 0 0 1-.873-.7 3.08 3.08 0 0 1-.527-1.034 4.31 4.31 0 0 1-.173-1.252 4.61 4.61 0 0 1 .173-1.252c.112-.37.29-.716.527-1.021a2.63 2.63 0 0 1 .873-.7c.383-.18.802-.27 1.226-.263a3.72 3.72 0 0 1 .526.064 2.03 2.03 0 0 1 .552.173l.527.289a1.66 1.66 0 0 1 .404.469v-3.172h1.028v8.532h-1.028v.026zm-3.64-2.183a3.05 3.05 0 0 0 .347.726c.169.224.389.404.642.526.264.129.553.199.847.206.305.013.607-.058.873-.206.227-.134.424-.313.578-.526a2.28 2.28 0 0 0 .321-.758c.059-.279.089-.563.09-.848.007-.295-.032-.59-.115-.873a1.78 1.78 0 0 0-.347-.758c-.171-.223-.39-.403-.642-.526-.275-.15-.586-.221-.899-.205-.304-.013-.606.058-.873.205-.227.134-.423.313-.578.526-.143.236-.251.491-.321.758-.059.287-.089.58-.09.873l.174.873-.007.006zm6.292-4h1.027v6.176h-1.027v-6.176zm3.512 0v1.284c.195-.444.508-.825.905-1.104.438-.243.94-.346 1.438-.295v1.079a2.97 2.97 0 0 0-1.046.173 1.51 1.51 0 0 0-.707.494 2.19 2.19 0 0 0-.385.783c-.083.342-.122.694-.115 1.047v2.716h-1.028v-6.176h.983-.045zM0 0h.963v26.104H0V0z" fill="#bdbdbd"/></svg>