<svg width="206" height="29" viewBox="0 0 206 29" fill="none" xmlns="http://www.w3.org/2000/svg">
<path d="M1 5.65919H2.96455V11.9445C2.93621 12.7815 3.0008 13.6191 3.15715 14.4419C3.26488 14.9149 3.51599 15.3431 3.8762 15.6681C4.30799 16.0005 4.81523 16.2211 5.35282 16.3101C6.23801 16.4513 7.13373 16.5157 8.03 16.5027C9.19565 16.5348 10.3606 16.4183 11.4969 16.156C12.2222 15.9879 12.8747 15.5919 13.3587 15.0261C13.6354 14.6835 13.8229 14.2776 13.9044 13.8448C14.0215 13.1666 14.071 12.4784 14.052 11.7904V5.65919H16.0166V18.0756H14.052V16.2138H13.9365C13.4885 16.9715 12.7816 17.5416 11.9463 17.8188C10.5905 18.1533 9.19387 18.2916 7.79888 18.2297C6.5963 18.2613 5.39366 18.1687 4.21005 17.9537C3.46749 17.8227 2.76982 17.507 2.1813 17.0356C1.71431 16.6177 1.38709 16.0664 1.24397 15.4563C1.04367 14.4918 0.961743 13.5065 1 12.5223V5.65277V5.65919ZM30.2114 13.5816H32.2145C32.2145 15.0903 31.8421 16.1881 31.1873 16.8815C30.6634 17.4138 29.9929 17.7781 29.2612 17.928C28.0663 18.157 26.8501 18.256 25.6339 18.2233C24.0426 18.2531 22.4511 18.1759 20.8702 17.9922C20.0228 17.9002 19.209 17.6099 18.4948 17.1447C17.2749 16.2267 16.6779 14.4804 16.6779 11.8995C16.5907 10.4859 16.86 9.07307 17.4611 7.79066C17.9458 6.92779 18.7396 6.2808 19.6825 5.98019C21.2393 5.59377 22.8437 5.43376 24.4462 5.50511C25.9293 5.46569 27.4127 5.56888 28.876 5.81327C29.7023 5.94781 30.4705 6.32298 31.0846 6.89185C31.441 7.2516 31.7053 7.69209 31.855 8.17587C32.0335 8.80301 32.1327 9.45006 32.1503 10.1019H30.0959C30.0959 8.93344 29.6914 8.17587 28.9531 7.79066C28.2148 7.40545 26.7061 7.23211 24.459 7.23211C22.212 7.23211 20.7675 7.45682 20.0741 7.91264C19.588 8.26029 19.2383 8.76659 19.0854 9.34432C18.8553 10.2262 18.7515 11.1362 18.7772 12.0472C18.7446 12.9187 18.8708 13.7889 19.1496 14.6152C19.3456 15.1803 19.7403 15.6549 20.2603 15.9506C20.9922 16.323 22.6357 16.5156 25.1909 16.5156C27.2068 16.5156 28.5294 16.323 29.1585 15.957C29.7877 15.5911 30.1215 14.8014 30.1729 13.5944L30.2114 13.5816ZM32.7795 5.65919H34.7697V11.9445C34.7413 12.7815 34.8059 13.6191 34.9623 14.4419C35.0641 14.9142 35.311 15.343 35.6685 15.6681C36.1033 15.9955 36.6092 16.2154 37.1451 16.3101C38.0301 16.4524 38.9261 16.5147 39.8223 16.4963C40.9877 16.5302 42.1526 16.4159 43.2892 16.156C44.0138 15.9862 44.6658 15.5905 45.151 15.0261C45.4277 14.6835 45.6152 14.2776 45.6967 13.8448C45.8136 13.1665 45.8631 12.4784 45.8443 11.7904V5.65277H47.8089V18.0692H45.8443V16.2074H45.7288C45.2808 16.9651 44.5739 17.5351 43.7386 17.8124C42.3828 18.1468 40.9862 18.2852 39.5912 18.2233C38.395 18.2535 37.1989 18.161 36.0216 17.9472C35.279 17.8163 34.5814 17.5005 33.9929 17.0292C33.5259 16.6113 33.1986 16.0599 33.0555 15.4498C32.8468 14.4886 32.7562 13.5055 32.7859 12.5223V5.65277L32.7795 5.65919ZM49.0608 5.65919H62.5045V7.39261L51.4427 16.3807H62.5687V18.0564H48.6371V16.1304L59.5512 7.32199H49.0865V5.65277L49.0608 5.65919Z" fill="#FDC70F"/>
<path d="M64.9056 9.37642H62.864V8.83713C62.8109 8.29893 62.9223 7.75728 63.1837 7.28382C63.4451 6.81037 63.844 6.42742 64.3278 6.18563C65.3037 5.71054 67.1355 5.473 69.8234 5.473C71.3484 5.43055 72.8742 5.52725 74.3817 5.7619C75.1977 5.90099 75.9535 6.2811 76.5517 6.85332C76.9757 7.27527 77.2699 7.81004 77.3991 8.39414C77.5646 9.42333 77.6313 10.466 77.5981 11.5079V18.0628H75.6721L75.7106 16.6119H75.6079C75.1852 17.2281 74.5645 17.6811 73.8488 17.8959C72.5803 18.1416 71.2878 18.2407 69.9967 18.1912C68.4971 18.2163 66.9971 18.1648 65.5027 18.0371C64.8156 17.9949 64.1516 17.7736 63.5766 17.3951C63.1319 17.1484 62.775 16.7691 62.5559 16.3101C62.3613 15.7205 62.2743 15.1008 62.2991 14.4804C62.2602 13.7246 62.3919 12.9699 62.6843 12.2719C62.9575 11.7433 63.414 11.3325 63.9683 11.1163C64.6317 10.8252 66.1789 10.6818 68.61 10.6861C70.2784 10.6366 71.9481 10.7139 73.6048 10.9172C74.3453 11.0168 75.0166 11.4044 75.4731 11.9958H75.64V10.6604C75.714 9.83094 75.5059 9.00074 75.0494 8.30426C74.6362 7.84042 74.0765 7.53225 73.4636 7.43113C72.3115 7.24361 71.1442 7.16622 69.9775 7.2C67.8589 7.2 66.485 7.32841 65.8686 7.57237C65.5569 7.70607 65.297 7.93732 65.128 8.23138C64.9589 8.52545 64.8899 8.86642 64.9313 9.20307V9.37L64.9056 9.37642ZM69.9261 12.4003L66.5363 12.4773C66.0622 12.4967 65.596 12.6056 65.1624 12.7983C64.8926 12.9831 64.6782 13.2379 64.5425 13.5355C64.4067 13.833 64.3547 14.1619 64.392 14.4868C64.3587 14.8226 64.4288 15.1606 64.5929 15.4554C64.757 15.7503 65.0072 15.988 65.3101 16.1368C65.8023 16.3765 67.4758 16.4942 70.3306 16.4899C72.4171 16.4899 73.7974 16.3615 74.4651 16.0854C74.7886 15.9597 75.0621 15.7317 75.2441 15.4362C75.426 15.1406 75.5065 14.7937 75.4731 14.4483C75.496 14.0906 75.3975 13.7357 75.1936 13.4409C74.9897 13.1461 74.6923 12.9288 74.3496 12.824C72.9014 12.4683 71.4088 12.3277 69.9197 12.4067L69.9261 12.4003ZM78.7216 0.202103H83.4918V7.1358H83.7036C84.1116 6.40208 84.7635 5.83425 85.5462 5.53078C86.6825 5.19285 87.8673 5.04746 89.0516 5.10063C90.32 5.07616 91.588 5.16857 92.8394 5.3767C93.6535 5.50012 94.4275 5.81233 95.0993 6.28835C95.7244 6.74422 96.1769 7.39812 96.3833 8.14376C96.6529 9.33528 96.7673 10.5567 96.7236 11.7775L96.6209 14.23C96.5609 14.7675 96.4359 15.2956 96.2485 15.8029C96.0674 16.2896 95.7797 16.7297 95.4064 17.0907C95.0332 17.4518 94.5838 17.7247 94.0914 17.8895C92.4957 18.3669 90.8308 18.5709 89.1671 18.4929C86.9394 18.4929 85.3985 18.2361 84.5575 17.7225C84.0964 17.4066 83.7213 16.9807 83.4661 16.4835H83.2093V18.1527H78.7152V0.176422L78.7216 0.202103ZM87.7419 8.67021C86.0983 8.67021 85.0005 8.81787 84.4355 9.11961C84.0816 9.30694 83.8145 9.6247 83.6908 10.0056C83.5379 10.6072 83.473 11.2279 83.4982 11.8482C83.4563 12.4998 83.5391 13.1535 83.7422 13.7742C83.8341 13.9662 83.9658 14.1364 84.1285 14.2737C84.2912 14.4109 84.4812 14.512 84.6859 14.5703C85.7091 14.8545 86.771 14.9737 87.8318 14.9234C89.501 14.9234 90.6245 14.75 91.1702 14.3969C91.4744 14.1896 91.6897 13.8758 91.7737 13.5174C91.9068 12.9213 91.965 12.311 91.947 11.7005C91.9795 11.0859 91.9012 10.4705 91.7159 9.8836C91.6449 9.69119 91.5338 9.51611 91.3899 9.36999C91.246 9.22387 91.0726 9.11006 90.8813 9.03615C89.876 8.72694 88.8243 8.59656 87.774 8.65094L87.7419 8.67021ZM97.1537 0.195683H101.924V3.77809H97.1537V0.195683ZM97.1537 5.4088H101.924V18.1591H97.1537V5.39596V5.4088ZM102.726 0.195683H107.49V18.1719H102.726V0.195683ZM102.726 19.456H107.49V22.3771H102.726V19.456ZM102.726 23.7831H107.49V25.7091H102.726V23.7831ZM102.726 27.6352H107.49V28.8807H102.726V27.6352ZM120.606 14.153H125.357C125.338 15.2801 124.877 16.3546 124.073 17.1447C123.318 17.7388 122.418 18.122 121.467 18.2554C119.794 18.5012 118.104 18.6043 116.414 18.5636C114.986 18.5933 113.558 18.5031 112.145 18.2939C111.297 18.1744 110.489 17.8554 109.788 17.363C109.17 16.8977 108.72 16.2444 108.504 15.5012C108.238 14.2921 108.141 13.0519 108.216 11.8161C108.201 10.9026 108.244 9.98916 108.344 9.08109C108.42 8.50759 108.589 7.95032 108.845 7.43113C109.122 6.91011 109.515 6.45968 109.993 6.11461C110.472 5.76953 111.024 5.53904 111.605 5.4409C113.364 5.12811 115.149 4.99475 116.934 5.04285C118.436 5.0083 119.938 5.0834 121.428 5.26756C122.969 5.52436 124.035 6.10217 124.638 7.00098C125.242 7.89979 125.505 9.38926 125.505 11.495V12.7791H112.966C112.949 13.2492 112.992 13.7195 113.095 14.1786C113.176 14.4627 113.35 14.7113 113.589 14.8849C114.064 15.238 115.13 15.4113 116.799 15.4113C117.6 15.4293 118.4 15.3864 119.194 15.2829C119.59 15.2516 119.969 15.1068 120.285 14.8656C120.477 14.6352 120.589 14.3494 120.606 14.0502V14.153ZM120.671 10.3009L120.574 9.27369C120.521 9.08474 120.425 8.91096 120.292 8.76651C119.881 8.34278 118.777 8.1245 116.985 8.1245C115.38 8.1245 114.315 8.26574 113.775 8.54822C113.494 8.7403 113.268 9.00378 113.121 9.31173C112.974 9.61967 112.912 9.96103 112.941 10.3009H120.645H120.671Z" fill="#FDC70F"/>
<path d="M127.97 2.46838H132.734V5.39595H140.277V8.7986H132.74V12.5094C132.685 13.1443 132.757 13.7838 132.952 14.3905C133.19 14.8271 133.748 15.0325 134.641 15.0325C135.533 15.0325 136.13 14.8206 136.355 14.3905C136.439 14.2372 136.493 14.0695 136.515 13.8962C136.515 13.4788 136.515 13.0615 136.515 12.6507H140.881C140.894 13.5373 140.82 14.4231 140.663 15.2957C140.528 15.8492 140.274 16.3664 139.918 16.8109C139.415 17.4389 138.725 17.889 137.947 18.0949C136.727 18.3777 135.475 18.4986 134.223 18.4544C133.083 18.4883 131.943 18.4022 130.821 18.1976C130.141 18.0623 129.513 17.7373 129.01 17.2603C128.688 16.9541 128.436 16.5817 128.272 16.1689C128.098 15.6425 128.005 15.0926 127.996 14.5382C127.996 14.2814 127.996 13.6008 127.996 12.4837V8.76008H125.479V5.39595H127.996V2.46838H127.97ZM142.351 14.9811H145.253V18.005H142.351V14.9811ZM160.283 13.5302H162.273C162.273 15.0389 161.9 16.1368 161.246 16.8237C160.724 17.3599 160.053 17.7268 159.319 17.8766C158.125 18.1057 156.908 18.2047 155.692 18.1719C154.105 18.2041 152.517 18.1248 150.941 17.9344C150.098 17.8398 149.289 17.5496 148.579 17.0869C147.378 16.1689 146.736 14.4226 146.736 11.8481C146.649 10.4345 146.918 9.02169 147.519 7.73928C148.005 6.87766 148.799 6.23113 149.741 5.92881C151.293 5.54361 152.893 5.38362 154.492 5.45373C155.975 5.41431 157.458 5.5175 158.921 5.76189C159.747 5.89789 160.515 6.27286 161.13 6.84047C161.483 7.20397 161.749 7.64307 161.907 8.12449C162.09 8.75071 162.189 9.39831 162.202 10.0505H160.148C160.148 8.88206 159.743 8.12449 159.005 7.73928C158.267 7.35407 156.758 7.18073 154.511 7.18073C152.264 7.18073 150.819 7.40544 150.132 7.86126C149.646 8.20891 149.297 8.71521 149.144 9.29294C148.911 10.1721 148.807 11.0804 148.835 11.9894C148.803 12.8609 148.93 13.7309 149.208 14.5574C149.412 15.1375 149.83 15.6176 150.376 15.8992C151.108 16.2716 152.752 16.4642 155.301 16.4642C157.31 16.4642 158.639 16.2716 159.268 15.9056C159.897 15.5397 160.231 14.75 160.283 13.5495V13.5302ZM170.279 5.45373L174.599 5.63349C175.36 5.70053 176.1 5.91879 176.776 6.2755C177.549 6.73595 178.148 7.44062 178.477 8.27857C178.867 9.41331 179.041 10.6109 178.991 11.8096C179.051 13.1016 178.832 14.3915 178.349 15.5911C178.08 16.1968 177.66 16.7231 177.129 17.119C176.524 17.5205 175.841 17.7917 175.126 17.9151C173.803 18.1225 172.464 18.2084 171.126 18.1719C169.795 18.1912 168.464 18.1334 167.139 17.9986C166.377 17.9252 165.637 17.7073 164.956 17.3566C164.15 16.9327 163.52 16.2366 163.178 15.392C162.77 14.2237 162.589 12.9881 162.645 11.7518C162.566 10.3877 162.831 9.02554 163.416 7.79064C163.876 6.9171 164.652 6.2515 165.585 5.92881C167.111 5.53991 168.686 5.37767 170.259 5.44731L170.279 5.45373ZM170.6 7.18715C169.617 7.16924 168.635 7.21642 167.659 7.3284C167.104 7.39171 166.566 7.56639 166.08 7.842C165.59 8.1816 165.234 8.68093 165.072 9.25442C164.832 10.106 164.723 10.9894 164.751 11.8738C164.704 12.8337 164.846 13.7934 165.168 14.6987C165.307 15.01 165.509 15.2886 165.762 15.5165C166.016 15.7443 166.314 15.9163 166.638 16.0212C167.392 16.3122 168.851 16.4556 171.017 16.4513C172.057 16.4771 173.098 16.4256 174.131 16.2973C174.699 16.2308 175.243 16.0282 175.716 15.7066C176.178 15.3703 176.509 14.885 176.654 14.3327C176.871 13.4948 176.966 12.6298 176.936 11.7647C176.994 10.7848 176.841 9.80405 176.487 8.88848C176.326 8.55636 176.095 8.26287 175.81 8.02799C175.526 7.79312 175.194 7.62238 174.837 7.52742C173.452 7.24722 172.037 7.13513 170.625 7.19357L170.6 7.18715ZM179.8 5.60781H181.771V7.23851C182.25 6.59525 182.893 6.09205 183.632 5.78115C184.68 5.51065 185.762 5.39813 186.842 5.44731C188.312 5.38072 189.783 5.53217 191.208 5.89671C192.086 6.18858 192.822 6.80064 193.269 7.61088C193.643 6.82607 194.312 6.22126 195.131 5.92881C196.402 5.56028 197.725 5.40197 199.047 5.46015C200.318 5.42177 201.589 5.52948 202.835 5.78115C203.616 5.96746 204.328 6.37542 204.883 6.95603C205.272 7.38621 205.542 7.91076 205.666 8.47759C205.821 9.47551 205.881 10.4858 205.846 11.495V18.0114H203.875V11.0264C203.875 9.51123 203.65 8.52895 203.194 8.07313C202.585 7.46964 201.191 7.17431 199.021 7.17431C198.064 7.14728 197.108 7.23348 196.171 7.43112C195.601 7.55099 195.081 7.84221 194.681 8.26573C194.311 8.73535 194.076 9.29685 194.001 9.89001C193.857 10.9709 193.797 12.0613 193.821 13.1514V18.0307H191.895V11.0264C191.913 10.3812 191.866 9.7359 191.754 9.10034C191.68 8.72286 191.494 8.37627 191.221 8.10523C190.579 7.46322 189.186 7.19357 187.016 7.19357C186.046 7.1647 185.076 7.2509 184.127 7.45038C183.532 7.57835 182.989 7.88001 182.567 8.31709C182.22 8.73511 181.997 9.24237 181.925 9.78087C181.802 10.8957 181.752 12.0173 181.777 13.1386V18.0179H179.819V5.60781H179.8Z" fill="#FDC70F"/>
</svg>
